<?xml version="1.0" encoding="utf-8"?>
<!-- Generator: Adobe Illustrator 27.2.0, SVG Export Plug-In . SVG Version: 6.00 Build 0)  -->
<svg version="1.1" id="Layer_1" xmlns="http://www.w3.org/2000/svg" xmlns:xlink="http://www.w3.org/1999/xlink" x="0px" y="0px"
	 viewBox="0 0 72 50" style="enable-background:new 0 0 72 50;" xml:space="preserve">
<style type="text/css">
	.st0{fill:#292929;}
</style>
<path class="st0" d="M0.56,23.56v24.45c0,0.75,0.6,1.35,1.35,1.35h27.3c0.75,0,1.35-0.6,1.35-1.35V22.36l5.55-20.1
	c0.3-1.05-0.15-1.5-1.05-1.5H19.01c-0.6,0-1.2,0.3-1.65,0.75l-16.2,20.4C0.71,22.36,0.56,22.96,0.56,23.56z M35.81,23.56v24.45
	c0,0.75,0.6,1.35,1.35,1.35h27.3c0.75,0,1.35-0.6,1.35-1.35V22.36l5.55-20.1c0.3-1.05-0.15-1.5-1.05-1.5H54.26
	c-0.6,0-1.2,0.3-1.65,0.75l-16.2,20.4C35.96,22.36,35.81,22.96,35.81,23.56z"/>
<g>
</g>
<g>
</g>
<g>
</g>
<g>
</g>
<g>
</g>
<g>
</g>
<g>
</g>
<g>
</g>
<g>
</g>
<g>
</g>
<g>
</g>
<g>
</g>
<g>
</g>
<g>
</g>
<g>
</g>
</svg>
